<?xml version="1.0" standalone="no"?><!DOCTYPE svg PUBLIC "-//W3C//DTD SVG 1.1//EN" "http://www.w3.org/Graphics/SVG/1.1/DTD/svg11.dtd"><svg t="1487597951599" class="icon" style="" viewBox="0 0 1024 1024" version="1.1" xmlns="http://www.w3.org/2000/svg" p-id="1850" xmlns:xlink="http://www.w3.org/1999/xlink" width="16" height="16"><defs><style type="text/css"></style></defs><path d="M857.020416 709.828608c-39.803904-51.105792-87.944192-84.286464-156.91776-103.109632l-64.623616 222.647296c0 20.504576-17.057792 37.289984-37.900288 37.289984s-37.900288-16.785408-37.900288-37.289984L559.678464 652.204032c0-25.735168-21.235712-46.633984-47.396864-46.633984-26.155008 0-47.39584 20.898816-47.39584 46.633984l0 177.161216c0 20.504576-17.05984 37.289984-37.899264 37.289984-20.837376 0-37.900288-16.785408-37.900288-37.289984l-64.62464-222.647296C255.460352 625.738752 207.322112 658.721792 167.518208 709.828608c-15.72352 20.144128-24.251392 60.622848-24.820736 82.24768l0 93.237248c0 41.208832 33.916928 74.60864 75.825152 74.60864L806.126592 959.922176c41.877504 0 75.826176-33.375232 75.826176-74.60864l0-93.237248c-0.56832-21.624832-9.09824-62.103552-24.850432-82.24768L857.020416 709.828608zM512.256 530.99008c127.741952 0 199.021568-160.011264 199.021568-268.913664 0-108.90752-89.079808-197.305344-199.021568-197.305344-109.94688 0-199.026688 88.3968-199.026688 197.305344C313.230336 370.978816 382.235648 530.99008 512.256 530.99008L512.256 530.99008zM512.256 530.99008" p-id="1851" fill="#ffffff"></path></svg>