<?xml version="1.0" standalone="no"?><!DOCTYPE svg PUBLIC "-//W3C//DTD SVG 1.1//EN" "http://www.w3.org/Graphics/SVG/1.1/DTD/svg11.dtd"><svg t="1488431464263" class="icon" style="" viewBox="0 0 1024 1024" version="1.1" xmlns="http://www.w3.org/2000/svg" p-id="1847" xmlns:xlink="http://www.w3.org/1999/xlink" width="70" height="70"><defs><style type="text/css"></style></defs><path d="M512 1024C229.232 1024 0 794.768 0 512 0 229.232 229.232 0 512 0 794.768 0 1024 229.232 1024 512 1024 794.768 794.768 1024 512 1024ZM728 288C728 270.328 713.672 256 696 256L328 256C310.328 256 296 270.328 296 288L296 736C296 753.672 310.328 768 328 768L696 768C713.672 768 728 753.672 728 736L728 288ZM680 736 344 736C335.16 736 328 728.84 328 720L328 304C328 295.16 335.16 288 344 288L680 288C688.84 288 696 295.16 696 304L696 720C696 728.84 688.84 736 680 736ZM600 656 616 656C624.84 656 632 648.84 632 640 632 631.16 624.84 624 616 624L600 624C591.16 624 584 631.16 584 640 584 648.84 591.16 656 600 656ZM600 592 616 592C624.84 592 632 584.84 632 576 632 567.16 624.84 560 616 560L600 560C591.16 560 584 567.16 584 576 584 584.84 591.16 592 600 592ZM600 528 616 528C624.84 528 632 520.84 632 512 632 503.16 624.84 496 616 496L600 496C591.16 496 584 503.16 584 512 584 520.84 591.16 528 600 528ZM600 464 616 464C624.84 464 632 456.84 632 448 632 439.16 624.84 432 616 432L600 432C591.16 432 584 439.16 584 448 584 456.84 591.16 464 600 464ZM504 656 520 656C528.84 656 536 648.84 536 640 536 631.16 528.84 624 520 624L504 624C495.16 624 488 631.16 488 640 488 648.84 495.16 656 504 656ZM504 592 520 592C528.84 592 536 584.84 536 576 536 567.16 528.84 560 520 560L504 560C495.16 560 488 567.16 488 576 488 584.84 495.16 592 504 592ZM504 528 520 528C528.84 528 536 520.84 536 512 536 503.16 528.84 496 520 496L504 496C495.16 496 488 503.16 488 512 488 520.84 495.16 528 504 528ZM504 464 520 464C528.84 464 536 456.84 536 448 536 439.16 528.84 432 520 432L504 432C495.16 432 488 439.16 488 448 488 456.84 495.16 464 504 464ZM408 656 424 656C432.84 656 440 648.84 440 640 440 631.16 432.84 624 424 624L408 624C399.16 624 392 631.16 392 640 392 648.84 399.16 656 408 656ZM408 592 424 592C432.84 592 440 584.84 440 576 440 567.16 432.84 560 424 560L408 560C399.16 560 392 567.16 392 576 392 584.84 399.16 592 408 592ZM408 528 424 528C432.84 528 440 520.84 440 512 440 503.16 432.84 496 424 496L408 496C399.16 496 392 503.16 392 512 392 520.84 399.16 528 408 528ZM408 464 424 464C432.84 464 440 456.84 440 448 440 439.16 432.84 432 424 432L408 432C399.16 432 392 439.16 392 448 392 456.84 399.16 464 408 464ZM624 344 400 344C391.16 344 384 351.16 384 360 384 368.84 391.16 376 400 376L624 376C632.84 376 640 368.84 640 360 640 351.16 632.84 344 624 344Z" p-id="1848" fill="#ffffff"></path></svg>